<svg width="512" height="512" viewBox="0 0 512 512" xmlns="http://www.w3.org/2000/svg" shape-rendering="crispEdges">
  <defs>
    <linearGradient id="bg" x1="64" y1="64" x2="448" y2="448" gradientUnits="userSpaceOnUse">
      <stop stop-color="#38BDF8"/>
      <stop offset="0.52" stop-color="#6366F1"/>
      <stop offset="1" stop-color="#A855F7"/>
    </linearGradient>
    <linearGradient id="bubble" x1="118" y1="80" x2="298" y2="198" gradientUnits="userSpaceOnUse">
      <stop stop-color="#FFFFFF" stop-opacity="0.42"/>
      <stop offset="1" stop-color="#FFFFFF" stop-opacity="0"/>
    </linearGradient>
  </defs>

  <rect x="48" y="48" width="416" height="416" rx="112" fill="url(#bg)"/>
  <rect x="88" y="82" width="190" height="76" rx="38" fill="url(#bubble)"/>

  <rect x="364" y="104" width="16" height="16" fill="#FEF3C7"/>
  <rect x="348" y="120" width="48" height="16" fill="#FEF3C7"/>
  <rect x="364" y="136" width="16" height="16" fill="#FEF3C7"/>
  <rect x="116" y="344" width="16" height="16" fill="#BBF7D0"/>
  <rect x="100" y="360" width="48" height="16" fill="#BBF7D0"/>
  <rect x="116" y="376" width="16" height="16" fill="#BBF7D0"/>

  <rect x="160" y="390" width="192" height="24" fill="#1E1B4B" opacity="0.22"/>
  <rect x="192" y="414" width="128" height="14" fill="#1E1B4B" opacity="0.14"/>

  <rect x="184" y="286" width="144" height="96" fill="#1E293B"/>
  <rect x="200" y="270" width="112" height="32" fill="#334155"/>
  <rect x="216" y="286" width="80" height="80" fill="#F8FAFC"/>
  <rect x="240" y="302" width="32" height="32" fill="#3B82F6"/>
  <rect x="248" y="334" width="16" height="32" fill="#2563EB"/>

  <rect x="152" y="302" width="40" height="56" fill="#1E293B"/>
  <rect x="320" y="302" width="40" height="56" fill="#1E293B"/>
  <rect x="144" y="350" width="40" height="32" fill="#F2C299"/>
  <rect x="328" y="350" width="40" height="32" fill="#F2C299"/>

  <rect x="328" y="326" width="72" height="58" fill="#FBBF24"/>
  <rect x="328" y="326" width="72" height="14" fill="#F59E0B"/>
  <rect x="356" y="326" width="16" height="58" fill="#FDE68A"/>
  <rect x="344" y="360" width="40" height="8" fill="#92400E" opacity="0.45"/>

  <rect x="232" y="246" width="48" height="38" fill="#F2C299"/>
  <rect x="232" y="266" width="48" height="18" fill="#E0A777"/>

  <rect x="156" y="138" width="200" height="124" fill="#F2C299"/>
  <rect x="172" y="262" width="168" height="26" fill="#F2C299"/>
  <rect x="140" y="178" width="24" height="56" fill="#F2C299"/>
  <rect x="348" y="178" width="24" height="56" fill="#F2C299"/>

  <rect x="172" y="102" width="152" height="28" fill="#111827"/>
  <rect x="148" y="122" width="200" height="36" fill="#111827"/>
  <rect x="140" y="154" width="80" height="40" fill="#111827"/>
  <rect x="220" y="138" width="112" height="24" fill="#111827"/>
  <rect x="316" y="154" width="40" height="64" fill="#111827"/>
  <rect x="196" y="90" width="84" height="20" fill="#1F2937"/>
  <rect x="252" y="106" width="88" height="20" fill="#1F2937"/>
  <rect x="164" y="130" width="36" height="20" fill="#374151"/>

  <rect x="190" y="184" width="48" height="40" fill="#0F172A"/>
  <rect x="274" y="184" width="48" height="40" fill="#0F172A"/>
  <rect x="202" y="188" width="14" height="14" fill="#FFFFFF"/>
  <rect x="286" y="188" width="14" height="14" fill="#FFFFFF"/>
  <rect x="222" y="210" width="10" height="10" fill="#FFFFFF" opacity="0.7"/>
  <rect x="306" y="210" width="10" height="10" fill="#FFFFFF" opacity="0.7"/>

  <rect x="168" y="226" width="36" height="16" fill="#FB7185" opacity="0.72"/>
  <rect x="308" y="226" width="36" height="16" fill="#FB7185" opacity="0.72"/>
  <rect x="248" y="218" width="16" height="12" fill="#D99462"/>
  <rect x="224" y="240" width="64" height="8" fill="#7F1D1D"/>
  <rect x="240" y="248" width="32" height="8" fill="#FFFFFF" opacity="0.88"/>

  <rect x="200" y="374" width="48" height="24" fill="#0F172A"/>
  <rect x="264" y="374" width="48" height="24" fill="#0F172A"/>

  <rect x="374" y="176" width="44" height="12" fill="#FFFFFF" opacity="0.88"/>
  <rect x="406" y="164" width="12" height="36" fill="#FFFFFF" opacity="0.88"/>
  <rect x="394" y="164" width="12" height="12" fill="#FFFFFF" opacity="0.88"/>
  <rect x="418" y="188" width="12" height="12" fill="#FFFFFF" opacity="0.88"/>
</svg>
